<svg viewBox="6375.201 -1693.389 162.598 58.949" xmlns="http://www.w3.org/2000/svg"><g transform="translate(6371.301 -1699.789)"><path d="m58.3 33.612a25.151 25.151 0 1 1 -25.21-25.212 25.054 25.054 0 0 1 25.21 25.212z" fill="#fff" transform="translate(.894 .436)"/><path d="m53.593 36.605c-1.583-1.949-3.41-4.75-3.41-4.75a15.736 15.736 0 0 0 -1.827 4.75 27.4 27.4 0 0 0 -.609 2.68c-1.827 8.039-2.68 11.692-5.968 11.814-2.923.122-4.263-3.288-5.359-6.7-.244-.609-.365-1.218-.609-1.827-.609-1.949-1.34-4.263-1.949-5.968a32.873 32.873 0 0 0 -1.1 4.628c-.853 4.019-1.34 6.577-1.827 8.4s-1.218 4.75-3.776 4.75c-2.68 0-3.41-2.923-4.019-5.237s-1.218-5.6-2.192-10.109l-.609-2.68c-.487-2.436-1.827-8.769-2.923-12.058-.122.244-.244.365-.365.609s-.365.487-.609.853a2.706 2.706 0 0 1 -3.654.731 2.6 2.6 0 0 1 -1.1-2.192 2.341 2.341 0 0 1 .487-1.462 1.963 1.963 0 0 0 .487-.853c1.705-2.558 3.167-4.628 5.724-4.141 2.923.609 4.019 3.532 6.942 17.539l.609 2.68q.548 2.74 1.1 5.115c.244-.974.365-1.949.609-2.8 1.34-7.064 2.68-10.84 5.846-10.962 3.532-.244 4.872 4.019 7.308 11.814.244.609.365 1.218.609 1.827 0 .122 0 .122.122.244.365-1.583.853-3.41 1.218-4.994.244-.853.365-1.705.609-2.68 1.218-5.237 3.045-8.039 5.481-8.769a3.951 3.951 0 0 1 4.019.731s4.263 3.9 4.75 7.186c.487 3.045-2.436 3.654-4.019 1.827m-20.214-30.201a29.475 29.475 0 1 0 29.474 29.475 29.577 29.577 0 0 0 -29.474-29.475" fill="#00b8f1"/><path d="m75.239 31.912h-3.045l-2.194-6.09c-.244-.731-.487-1.462-.731-2.071h-.122a10.288 10.288 0 0 1 -.609 2.071l-2.192 6.09h-3.046l-5.6-15.59h4.019l2.8 8.648a9.124 9.124 0 0 1 .487 1.949h.122a9.126 9.126 0 0 1 .609-1.949l1.949-5.846-1.1-2.923h3.654l2.923 8.4c.244.853.487 1.462.731 2.314.122-.731.365-1.462.487-2.192l2.436-8.4h3.654z" fill="#007dc4" transform="translate(11.726 2.136)"/><path d="m77.6 31.79v-15.59h9.257l-.857 2.923h-4.868v3.288h4.868v2.923h-4.868v3.532h5.724v2.924z" fill="#007dc4" transform="translate(16.064 2.136)"/><path d="m92.037 25.335h-1.583v3.41h1.462c1.705 0 2.436-.609 2.436-1.827 0-.974-.731-1.583-2.314-1.583m-.609-6.09h-.974v3.288h1.462a1.51 1.51 0 0 0 1.462-1.583c0-.974-.609-1.705-1.949-1.705m.97 12.545h-5.6v-15.59h5.359c3.167 0 4.75 1.949 4.75 3.9a3.473 3.473 0 0 1 -1.709 3.042 3.77 3.77 0 0 1 2.8 3.776c0 2.436-1.827 4.872-5.6 4.872" fill="#007dc4" transform="translate(18.069 2.136)"/><path d="m109.317 32.034a7.511 7.511 0 0 1 -7.917-7.795c0-4.385 3.532-8.039 9.013-8.039a16.216 16.216 0 0 1 4.75.731l-.122 3.167a8.43 8.43 0 0 0 -4.141-1.098c-4.141 0-5.6 2.436-5.6 4.994a4.966 4.966 0 0 0 4.872 5.237 5.249 5.249 0 0 0 2.071-.365v-5.115h3.654v6.7a15.4 15.4 0 0 1 -6.577 1.583" fill="#007dc4" transform="translate(21.251 2.136)"/><path d="m115.2 31.79v-15.59h9.378l-.853 2.923h-4.872v3.288h4.872v2.923h-4.872v3.532h5.6v2.924z" fill="#007dc4" transform="translate(24.259 2.136)"/><path d="m132.139 19c-2.436 0-4.385 1.827-4.385 5.115s1.827 5.115 4.385 5.115c2.436 0 4.263-1.827 4.263-5.115s-1.949-5.115-4.263-5.115m5.968 10.6a8.356 8.356 0 0 1 -5.968 2.436 8.166 8.166 0 0 1 -5.6-1.827 7.8 7.8 0 0 1 -2.439-5.849 8.185 8.185 0 0 1 2.314-5.846 7.981 7.981 0 0 1 5.846-2.314 7.518 7.518 0 0 1 8.039 7.917 8.812 8.812 0 0 1 -2.192 5.481" fill="#007dc4" transform="translate(26.199 2.136)"/><g fill="#00b8f1"><path d="m63.315 47.977a8.51 8.51 0 0 1 -5.115-1.583l1.34-2.558a5.894 5.894 0 0 0 3.532 1.218c1.1 0 2.192-.365 2.192-1.462 0-1.827-3.776-2.192-5.6-4.385a4.11 4.11 0 0 1 -.974-2.8c0-2.314 1.949-4.506 5.481-4.506a7.53 7.53 0 0 1 4.019.974l-.122 3.045a7.812 7.812 0 0 0 -3.776-1.1c-1.1 0-1.827.487-1.827 1.218 0 2.436 6.577 2.192 6.577 7.064.122 3.167-2.436 4.872-5.724 4.872" transform="translate(11.835 5.558)"/><path d="m68.7 47.79v-15.59h9.378l-.978 2.923h-4.75v3.288h4.872v2.923h-4.868v3.532h5.6v2.924z" transform="translate(14.124 5.623)"/><path d="m82.894 35.123h-1.34v4.141h1.34a2.183 2.183 0 0 0 2.192-2.192 1.993 1.993 0 0 0 -2.192-1.949m3.406 12.667c-2.314-4.019-3.167-5.6-3.654-5.846h-1.1v5.846h-3.646v-15.59h4.872c4.263 0 5.724 2.071 5.724 4.506a4.574 4.574 0 0 1 -2.8 4.019c.853.487 2.314 3.045 4.506 6.942h-3.902z" transform="translate(16.129 5.623)"/><path d="m96.257 47.79h-2.8l-6.457-15.59h3.9l2.923 7.673c.365 1.1.731 2.071 1.1 3.045a22.686 22.686 0 0 1 1.1-2.923l3.277-7.795h3.654z" transform="translate(18.113 5.623)"/><path d="m122.651 37.823h3.654v15.468h-3.654z"/><path d="m114.039 47.934c-5.115 0-8.039-3.532-8.039-7.795 0-4.385 3.41-8.039 8.891-8.039a8.174 8.174 0 0 1 4.019.853l-.121 3.047a7.213 7.213 0 0 0 -3.776-.974c-3.654 0-5.115 2.436-5.115 4.994a4.67 4.67 0 0 0 4.75 4.994 7.245 7.245 0 0 0 3.9-1.1l.974 2.436a9.474 9.474 0 0 1 -5.481 1.583" transform="translate(22.254 5.602)"/><path d="m118.6 47.79v-15.59h9.257l-.857 2.923h-4.872v3.288h4.872v2.923h-4.872v3.532h5.724v2.924z" transform="translate(25 5.623)"/><path d="m132.415 47.977a8.51 8.51 0 0 1 -5.115-1.583l1.34-2.558a5.894 5.894 0 0 0 3.532 1.218c1.1 0 2.192-.365 2.192-1.462 0-1.827-3.776-2.192-5.6-4.385a4.11 4.11 0 0 1 -.974-2.8c0-2.314 1.949-4.506 5.481-4.506a7.53 7.53 0 0 1 4.019.974l-.122 3.045a7.812 7.812 0 0 0 -3.776-1.1c-1.1 0-1.827.487-1.827 1.218 0 2.436 6.577 2.192 6.577 7.064.122 3.167-2.436 4.872-5.724 4.872" transform="translate(26.897 5.558)"/></g></g></svg>